# xmcd
#
# Track frame offsets: 
#        182
#        12325
#        22660
#        31537
#        45212
#        60025
#        71250
#        84645
#        101510
#        114365
#        127217
#        144407
#        159105
#        172950
#        187487
#        202065
#        219075
#        237030
#        249212
#        266812
#        284500
#        302950
#
# Disc length: 4246 seconds
#
# Revision: 2
# Processed by: cddbd v1.4PL0 Copyright (c) Steve Scherf et al.
# Submitted via: ExactAudioCopy v0.90b3
#
DISCID=1c109416
DTITLE=Marvin Gaye - Anthology Vol.2
DYEAR=1986
DGENRE=R&B
TTITLE0=Chained
TTITLE1=Ain't Nothing Like The Real Thing with Tammi Terrel
TTITLE2=How Can I Forget
TTITLE3=Heaven Sent You, I Know with Kim Weston
TTITLE4=I Heard It Through The Grapevine
TTITLE5=Good Lovin' Ain't Easy To Come By with Tammi Terrel
TTITLE6=Too Busy Thinking About My Baby
TTITLE7=That's The Way Love Is
TTITLE8=You're All I need To Get By with Tammi Terrel
TTITLE9=The End Of Our Road
TTITLE10=What's Goin' On
TTITLE11=Mercy, Mercy(The Ecology)
TTITLE12=Inner City Blues(Make Me Wanna Holler)
TTITLE13=Save The Children
TTITLE14=You're The Man (Part 1)
TTITLE15=Trouble Man
TTITLE16=Let's Get It On
TTITLE17=Come Get To This
TTITLE18=Distant Lover (Live)
TTITLE19=I Want You
TTITLE20=Got To Give It Up
TTITLE21=After The Dance
EXTD=
EXTT0=
EXTT1=
EXTT2=
EXTT3=
EXTT4=
EXTT5=
EXTT6=
EXTT7=
EXTT8=
EXTT9=
EXTT10=
EXTT11=
EXTT12=
EXTT13=
EXTT14=
EXTT15=
EXTT16=
EXTT17=
EXTT18=
EXTT19=
EXTT20=
EXTT21=
PLAYORDER=
